<svg width="860" height="1024" viewBox="0 0 860 1024" fill="none" xmlns="http://www.w3.org/2000/svg">
<g filter="url(#filter0_d_440_1338)">
<path d="M474.596 1L821.812 894.656C836.042 930.649 852.169 954.802 870.194 967.115C888.219 978.481 904.821 984.638 920 985.585V1014C901.026 1012.11 877.784 1011.16 850.272 1011.16C822.76 1010.21 795.249 1009.74 767.737 1009.74C730.739 1009.74 696.112 1010.21 663.857 1011.16C631.602 1011.16 605.513 1012.11 585.591 1014V985.585C633.974 983.69 664.806 975.64 678.087 961.432C691.369 946.277 688.523 914.547 669.549 866.241L404.868 160.125L427.636 141.655L180.031 783.837C164.852 821.724 155.84 853.928 152.994 880.449C150.148 906.022 152.519 926.387 160.109 941.541C168.647 956.696 182.403 967.589 201.376 974.219C221.299 980.849 245.964 984.638 275.373 985.585V1014C248.81 1012.11 220.824 1011.16 191.415 1011.16C162.955 1010.21 136.392 1009.74 111.726 1009.74C88.0093 1009.74 67.6127 1010.21 50.5365 1011.16C34.409 1011.16 19.2302 1012.11 5 1014V985.585C23.9736 980.849 43.4215 969.957 63.3437 952.907C83.2659 934.911 101.291 904.602 117.418 861.979L451.827 1C455.622 1 459.417 1 463.212 1C467.006 1 470.801 1 474.596 1ZM648.204 604.822V633.237H224.145L238.375 604.822H648.204Z" fill="white" fill-opacity="0.02" shape-rendering="crispEdges"/>
<path d="M919.5 1013.95C900.619 1012.09 877.543 1011.16 850.272 1011.16L919.5 1013.95ZM919.5 1013.95V1014H920L920.05 1013.5C920.033 1013.5 920.017 1013.5 920 1013.5V985.585C904.821 984.638 888.219 978.481 870.194 967.115C852.169 954.802 836.042 930.649 821.812 894.656L919.5 1013.95ZM475.062 0.81892L474.938 0.5H474.596H474.573H474.551H474.529H474.507H474.484H474.462H474.44H474.418H474.396H474.373H474.351H474.329H474.307H474.284H474.262H474.24H474.218H474.195H474.173H474.151H474.129H474.106H474.084H474.062H474.04H474.018H473.995H473.973H473.951H473.929H473.906H473.884H473.862H473.84H473.817H473.795H473.773H473.751H473.728H473.706H473.684H473.662H473.64H473.617H473.595H473.573H473.551H473.528H473.506H473.484H473.462H473.439H473.417H473.395H473.373H473.35H473.328H473.306H473.284H473.262H473.239H473.217H473.195H473.173H473.15H473.128H473.106H473.084H473.061H473.039H473.017H472.995H472.973H472.95H472.928H472.906H472.884H472.861H472.839H472.817H472.795H472.772H472.75H472.728H472.706H472.683H472.661H472.639H472.617H472.595H472.572H472.55H472.528H472.506H472.483H472.461H472.439H472.417H472.394H472.372H472.35H472.328H472.305H472.283H472.261H472.239H472.217H472.194H472.172H472.15H472.128H472.105H472.083H472.061H472.039H472.016H471.994H471.972H471.95H471.927H471.905H471.883H471.861H471.839H471.816H471.794H471.772H471.75H471.727H471.705H471.683H471.661H471.638H471.616H471.594H471.572H471.549H471.527H471.505H471.483H471.461H471.438H471.416H471.394H471.372H471.349H471.327H471.305H471.283H471.26H471.238H471.216H471.194H471.172H471.149H471.127H471.105H471.083H471.06H471.038H471.016H470.994H470.971H470.949H470.927H470.905H470.882H470.86H470.838H470.816H470.794H470.771H470.749H470.727H470.705H470.682H470.66H470.638H470.616H470.593H470.571H470.549H470.527H470.504H470.482H470.46H470.438H470.416H470.393H470.371H470.349H470.327H470.304H470.282H470.26H470.238H470.215H470.193H470.171H470.149H470.126H470.104H470.082H470.06H470.038H470.015H469.993H469.971H469.949H469.926H469.904H469.882H469.86H469.837H469.815H469.793H469.771H469.748H469.726H469.704H469.682H469.66H469.637H469.615H469.593H469.571H469.548H469.526H469.504H469.482H469.459H469.437H469.415H469.393H469.37H469.348H469.326H469.304H469.282H469.259H469.237H469.215H469.193H469.17H469.148H469.126H469.104H469.081H469.059H469.037H469.015H468.992H468.97H468.948H468.926H468.904H468.881H468.859H468.837H468.815H468.792H468.77H468.748H468.726H468.703H468.681H468.659H468.637H468.615H468.592H468.57H468.548H468.526H468.503H468.481H468.459H468.437H468.414H468.392H468.37H468.348H468.325H468.303H468.281H468.259H468.237H468.214H468.192H468.17H468.148H468.125H468.103H468.081H468.059H468.036H468.014H467.992H467.97H467.947H467.925H467.903H467.881H467.859H467.836H467.814H467.792H467.77H467.747H467.725H467.703H467.681H467.658H467.636H467.614H467.592H467.569H467.547H467.525H467.503H467.481H467.458H467.436H467.414H467.392H467.369H467.347H467.325H467.303H467.28H467.258H467.236H467.214H467.191H467.169H467.147H467.125H467.103H467.08H467.058H467.036H467.014H466.991H466.969H466.947H466.925H466.902H466.88H466.858H466.836H466.814H466.791H466.769H466.747H466.725H466.702H466.68H466.658H466.636H466.613H466.591H466.569H466.547H466.524H466.502H466.48H466.458H466.436H466.413H466.391H466.369H466.347H466.324H466.302H466.28H466.258H466.235H466.213H466.191H466.169H466.146H466.124H466.102H466.08H466.058H466.035H466.013H465.991H465.969H465.946H465.924H465.902H465.88H465.857H465.835H465.813H465.791H465.768H465.746H465.724H465.702H465.68H465.657H465.635H465.613H465.591H465.568H465.546H465.524H465.502H465.479H465.457H465.435H465.413H465.391H465.368H465.346H465.324H465.302H465.279H465.257H465.235H465.213H465.19H465.168H465.146H465.124H465.101H465.079H465.057H465.035H465.013H464.99H464.968H464.946H464.924H464.901H464.879H464.857H464.835H464.812H464.79H464.768H464.746H464.723H464.701H464.679H464.657H464.635H464.612H464.59H464.568H464.546H464.523H464.501H464.479H464.457H464.434H464.412H464.39H464.368H464.345H464.323H464.301H464.279H464.257H464.234H464.212H464.19H464.168H464.145H464.123H464.101H464.079H464.056H464.034H464.012H463.99H463.967H463.945H463.923H463.901H463.879H463.856H463.834H463.812H463.79H463.767H463.745H463.723H463.701H463.678H463.656H463.634H463.612H463.59H463.567H463.545H463.523H463.501H463.478H463.456H463.434H463.412H463.389H463.367H463.345H463.323H463.3H463.278H463.256H463.234H463.212H463.189H463.167H463.145H463.123H463.1H463.078H463.056H463.034H463.011H462.989H462.967H462.945H462.922H462.9H462.878H462.856H462.834H462.811H462.789H462.767H462.745H462.722H462.7H462.678H462.656H462.633H462.611H462.589H462.567H462.544H462.522H462.5H462.478H462.456H462.433H462.411H462.389H462.367H462.344H462.322H462.3H462.278H462.255H462.233H462.211H462.189H462.167H462.144H462.122H462.1H462.078H462.055H462.033H462.011H461.989H461.966H461.944H461.922H461.9H461.877H461.855H461.833H461.811H461.789H461.766H461.744H461.722H461.7H461.677H461.655H461.633H461.611H461.588H461.566H461.544H461.522H461.499H461.477H461.455H461.433H461.411H461.388H461.366H461.344H461.322H461.299H461.277H461.255H461.233H461.21H461.188H461.166H461.144H461.121H461.099H461.077H461.055H461.033H461.01H460.988H460.966H460.944H460.921H460.899H460.877H460.855H460.832H460.81H460.788H460.766H460.743H460.721H460.699H460.677H460.655H460.632H460.61H460.588H460.566H460.543H460.521H460.499H460.477H460.454H460.432H460.41H460.388H460.365H460.343H460.321H460.299H460.277H460.254H460.232H460.21H460.188H460.165H460.143H460.121H460.099H460.076H460.054H460.032H460.01H459.987H459.965H459.943H459.921H459.899H459.876H459.854H459.832H459.81H459.787H459.765H459.743H459.721H459.698H459.676H459.654H459.632H459.609H459.587H459.565H459.543H459.521H459.498H459.476H459.454H459.432H459.409H459.387H459.365H459.343H459.32H459.298H459.276H459.254H459.232H459.209H459.187H459.165H459.143H459.12H459.098H459.076H459.054H459.031H459.009H458.987H458.965H458.942H458.92H458.898H458.876H458.854H458.831H458.809H458.787H458.765H458.742H458.72H458.698H458.676H458.653H458.631H458.609H458.587H458.564H458.542H458.52H458.498H458.476H458.453H458.431H458.409H458.387H458.364H458.342H458.32H458.298H458.275H458.253H458.231H458.209H458.186H458.164H458.142H458.12H458.098H458.075H458.053H458.031H458.009H457.986H457.964H457.942H457.92H457.897H457.875H457.853H457.831H457.808H457.786H457.764H457.742H457.72H457.697H457.675H457.653H457.631H457.608H457.586H457.564H457.542H457.519H457.497H457.475H457.453H457.43H457.408H457.386H457.364H457.342H457.319H457.297H457.275H457.253H457.23H457.208H457.186H457.164H457.141H457.119H457.097H457.075H457.052H457.03H457.008H456.986H456.964H456.941H456.919H456.897H456.875H456.852H456.83H456.808H456.786H456.763H456.741H456.719H456.697H456.674H456.652H456.63H456.608H456.586H456.563H456.541H456.519H456.497H456.474H456.452H456.43H456.408H456.385H456.363H456.341H456.319H456.297H456.274H456.252H456.23H456.208H456.185H456.163H456.141H456.119H456.096H456.074H456.052H456.03H456.007H455.985H455.963H455.941H455.919H455.896H455.874H455.852H455.83H455.807H455.785H455.763H455.741H455.718H455.696H455.674H455.652H455.629H455.607H455.585H455.563H455.541H455.518H455.496H455.474H455.452H455.429H455.407H455.385H455.363H455.34H455.318H455.296H455.274H455.251H455.229H455.207H455.185H455.163H455.14H455.118H455.096H455.074H455.051H455.029H455.007H454.985H454.962H454.94H454.918H454.896H454.874H454.851H454.829H454.807H454.785H454.762H454.74H454.718H454.696H454.673H454.651H454.629H454.607H454.584H454.562H454.54H454.518H454.496H454.473H454.451H454.429H454.407H454.384H454.362H454.34H454.318H454.295H454.273H454.251H454.229H454.206H454.184H454.162H454.14H454.118H454.095H454.073H454.051H454.029H454.006H453.984H453.962H453.94H453.917H453.895H453.873H453.851H453.828H453.806H453.784H453.762H453.74H453.717H453.695H453.673H453.651H453.628H453.606H453.584H453.562H453.539H453.517H453.495H453.473H453.45H453.428H453.406H453.384H453.362H453.339H453.317H453.295H453.273H453.25H453.228H453.206H453.184H453.161H453.139H453.117H453.095H453.072H453.05H453.028H453.006H452.984H452.961H452.939H452.917H452.895H452.872H452.85H452.828H452.806H452.783H452.761H452.739H452.717H452.694H452.672H452.65H452.628H452.606H452.583H452.561H452.539H452.517H452.494H452.472H452.45H452.428H452.405H452.383H452.361H452.339H452.316H452.294H452.272H452.25H452.228H452.205H452.183H452.161H452.139H452.116H452.094H452.072H452.05H452.027H452.005H451.983H451.961H451.939H451.916H451.894H451.872H451.85H451.827H451.485L451.361 0.818973L116.952 861.798L116.951 861.802C100.836 904.392 82.8472 934.613 63.0135 952.532C43.1328 969.544 23.7545 980.388 4.87891 985.1L4.5 985.194V985.585V1014V1014.57L5.06598 1014.5C19.2718 1012.6 34.4284 1011.66 50.5365 1011.66H50.5504L50.5642 1011.66C67.6285 1010.71 88.0153 1010.24 111.726 1010.24C136.386 1010.24 162.943 1010.71 191.399 1011.66L191.407 1011.66H191.415C220.814 1011.66 248.788 1012.61 275.338 1014.5L275.873 1014.54V1014V985.585V985.101L275.389 985.085C246.013 984.139 221.401 980.355 201.539 973.746C182.667 967.151 169.02 956.333 160.551 941.307C153.026 926.274 150.651 906.022 153.491 880.504L153.491 880.502C156.33 854.044 165.325 821.888 180.495 784.023L180.498 784.017L238.441 633.737H581.863L669.081 866.417L669.084 866.424C678.562 890.557 683.999 910.515 685.416 926.313C686.833 942.114 684.222 953.667 677.717 961.096C671.169 968.097 660.249 973.628 644.876 977.642C629.508 981.655 609.743 984.139 585.571 985.085L585.091 985.104V985.585V1014V1014.55L585.638 1014.5C605.538 1012.61 631.609 1011.66 663.857 1011.66H663.864L663.872 1011.66C696.121 1010.71 730.743 1010.24 767.737 1010.24C795.243 1010.24 822.749 1010.71 850.255 1011.66L850.264 1011.66H850.272C877.774 1011.66 900.999 1012.61 919.95 1014.5L920.5 1014.55V1014V985.585V985.115L920.031 985.086C904.965 984.146 888.446 978.032 870.469 966.697C852.572 954.467 836.493 930.43 822.277 894.473L475.062 0.81892ZM412.574 182.109L570.837 604.322H249.782L412.574 182.109Z" stroke="black" shape-rendering="crispEdges"/>
</g>
<defs>
<filter id="filter0_d_440_1338" x="0" y="0" width="925" height="1023.14" filterUnits="userSpaceOnUse" color-interpolation-filters="sRGB">
<feFlood flood-opacity="0" result="BackgroundImageFix"/>
<feColorMatrix in="SourceAlpha" type="matrix" values="0 0 0 0 0 0 0 0 0 0 0 0 0 0 0 0 0 0 127 0" result="hardAlpha"/>
<feOffset dy="4"/>
<feGaussianBlur stdDeviation="2"/>
<feComposite in2="hardAlpha" operator="out"/>
<feColorMatrix type="matrix" values="0 0 0 0 0 0 0 0 0 0 0 0 0 0 0 0 0 0 0.25 0"/>
<feBlend mode="normal" in2="BackgroundImageFix" result="effect1_dropShadow_440_1338"/>
<feBlend mode="normal" in="SourceGraphic" in2="effect1_dropShadow_440_1338" result="shape"/>
</filter>
</defs>
</svg>
