<svg width="827" height="758" viewBox="0 0 827 758" fill="none" xmlns="http://www.w3.org/2000/svg">
<path d="M469.596 -189L816.812 704.656C831.042 740.649 847.169 764.802 865.194 777.115C883.219 788.481 899.821 794.638 915 795.585V824C896.026 822.106 872.784 821.159 845.272 821.159C817.76 820.211 790.249 819.738 762.737 819.738C725.739 819.738 691.112 820.211 658.857 821.159C626.602 821.159 600.513 822.106 580.591 824V795.585C628.974 793.69 659.806 785.64 673.087 771.432C686.369 756.277 683.523 724.547 664.549 676.241L399.868 -29.8751L422.636 -48.345L175.031 593.837C159.852 631.724 150.84 663.928 147.994 690.449C145.148 716.022 147.519 736.387 155.109 751.541C163.647 766.696 177.403 777.589 196.376 784.219C216.299 790.849 240.964 794.638 270.373 795.585V824C243.81 822.106 215.824 821.159 186.415 821.159C157.955 820.211 131.392 819.738 106.726 819.738C83.0093 819.738 62.6127 820.211 45.5365 821.159C29.409 821.159 14.2302 822.106 0 824V795.585C18.9736 790.849 38.4215 779.957 58.3437 762.907C78.2659 744.911 96.2908 714.602 112.418 671.979L446.827 -189C450.622 -189 454.417 -189 458.212 -189C462.006 -189 465.801 -189 469.596 -189ZM643.204 414.822V443.237H219.145L233.375 414.822H643.204Z" fill="#BE7E00" fill-opacity="0.03"/>
</svg>
