<svg width="550" height="643" viewBox="0 0 550 643" fill="none" xmlns="http://www.w3.org/2000/svg">
<path d="M0.325519 0.798443C12.7674 1.3909 29.0602 1.98336 49.2042 2.57583C69.3481 3.16829 89.1958 3.46452 108.747 3.46452C136.593 3.46452 163.254 3.16829 188.731 2.57583C214.207 1.98336 232.277 1.68713 242.941 1.68713C290.931 1.68713 330.627 8.50052 362.028 22.1273C394.021 35.7541 417.72 54.4168 433.124 78.1155C449.12 101.222 457.119 127.29 457.119 156.321C457.119 174.095 453.564 193.054 446.454 213.198C439.345 233.342 426.903 252.301 409.129 270.075C391.947 287.849 368.248 302.661 338.033 314.511C307.817 325.767 269.602 331.396 223.39 331.396H138.074V313.622H214.503C256.568 313.622 288.561 307.105 310.483 294.07C332.997 280.444 348.105 262.67 355.807 240.748C364.101 218.234 368.248 193.351 368.248 166.097C368.248 119.292 356.992 83.1515 334.478 57.6754C312.556 31.6068 274.638 18.5725 220.724 18.5725C193.47 18.5725 175.696 23.6085 167.402 33.6804C159.107 43.7524 154.96 64.1925 154.96 95.0009V535.798C154.96 557.126 156.737 573.123 160.292 583.787C163.847 594.452 170.66 601.562 180.732 605.116C191.397 608.671 206.801 611.041 226.945 612.226V630C213.318 628.815 196.136 628.223 175.4 628.223C155.256 627.63 134.816 627.334 114.079 627.334C90.9732 627.334 69.3481 627.63 49.2042 628.223C29.0602 628.223 12.7674 628.815 0.325519 630V612.226C20.4694 611.041 35.5774 608.671 45.6494 605.116C56.3138 601.562 63.4234 594.452 66.9782 583.787C70.533 573.123 72.3104 557.126 72.3104 535.798V95.0009C72.3104 73.0796 70.533 57.0829 66.9782 47.011C63.4234 36.3465 56.3138 29.2369 45.6494 25.6821C35.5774 21.5348 20.4694 19.1649 0.325519 18.5725V0.798443ZM141.629 316.288C173.623 317.473 198.802 318.954 217.169 320.731C235.536 321.916 250.347 323.101 261.604 324.286C273.454 325.471 284.71 326.952 295.375 328.73C335.07 335.247 363.509 347.393 380.69 365.167C398.464 382.348 411.499 409.305 419.793 446.039L442.011 536.686C447.935 562.755 453.86 581.714 459.785 593.563C466.302 604.82 476.078 610.152 489.112 609.56C499.184 608.967 507.479 605.709 513.996 599.784C521.105 593.859 528.511 585.861 536.213 575.789L549.544 585.565C537.102 603.931 524.068 618.151 510.441 628.223C497.407 637.702 478.744 642.442 454.453 642.442C432.531 642.442 413.276 635.925 396.687 622.89C380.098 609.856 367.656 584.38 359.361 546.462L339.81 457.592C334.478 432.116 328.257 410.194 321.147 391.828C314.63 372.869 305.151 358.057 292.709 347.393C280.859 336.728 263.085 331.396 239.387 331.396H143.407L141.629 316.288Z" fill="white" fill-opacity="0.06"/>
</svg>
