<svg width="382" height="652" viewBox="0 0 382 652" fill="none" xmlns="http://www.w3.org/2000/svg">
<path d="M172.508 0.0226796C202.131 0.0226796 224.645 3.5775 240.049 10.6871C255.454 17.2043 269.08 24.6101 280.93 32.9047C288.039 37.052 293.668 40.3106 297.815 42.6804C302.555 44.4578 306.998 45.3465 311.146 45.3465C317.07 45.3465 321.218 42.0879 323.587 35.5708C326.55 29.0536 328.92 19.2779 330.697 6.24362H351.137C350.545 16.3156 349.656 28.4612 348.471 42.6804C347.879 56.3072 347.286 74.6737 346.694 97.78C346.694 120.294 346.694 150.213 346.694 187.539H326.254C324.476 159.1 318.255 131.847 307.591 105.778C296.926 79.7097 281.226 58.3808 260.489 41.7917C240.346 25.2026 213.684 16.908 180.506 16.908C149.105 16.908 123.037 26.3875 102.3 45.3465C82.1565 64.3055 72.0845 89.1892 72.0845 119.998C72.0845 146.659 78.8979 169.172 92.5247 187.539C106.151 205.313 124.222 221.606 146.736 236.418C169.842 250.637 194.725 266.041 221.387 282.63C252.195 301.589 279.448 320.548 303.147 339.507C327.438 357.874 346.397 378.314 360.024 400.828C374.243 423.341 381.353 450.595 381.353 482.588C381.353 520.506 372.762 551.907 355.581 576.791C338.399 601.674 315.589 620.337 287.151 632.779C258.712 645.221 227.311 651.442 192.948 651.442C161.547 651.442 136.664 647.887 118.297 640.777C99.9305 633.668 84.2301 626.262 71.1958 618.56C58.1615 610.265 48.0895 606.118 40.9799 606.118C35.0552 606.118 30.6117 609.377 27.6494 615.894C25.2795 622.411 23.2058 632.187 21.4284 645.221H0.988275C2.17321 632.779 2.76568 618.264 2.76568 601.674C3.35815 584.493 3.65438 562.275 3.65438 535.022C4.24685 507.768 4.54309 473.405 4.54309 431.932H24.9833C27.3531 467.48 33.8703 500.659 44.5347 531.467C55.7916 562.275 72.677 587.159 95.1908 606.118C118.297 624.485 148.809 633.668 186.727 633.668C206.279 633.668 224.645 629.817 241.827 622.115C259.601 613.82 274.116 601.082 285.373 583.9C296.63 566.126 302.259 543.316 302.259 515.47C302.259 491.179 296.334 470.146 284.484 452.372C273.228 434.006 257.231 417.121 236.495 401.716C215.758 385.72 191.467 369.427 163.621 352.838C135.775 335.656 109.706 318.178 85.415 300.404C61.1238 282.63 41.5724 262.19 26.7607 239.084C12.5414 215.385 5.43179 186.947 5.43179 153.768C5.43179 118.813 13.1339 90.0779 28.5381 67.5641C44.5347 44.4578 65.2711 27.5725 90.7473 16.908C116.223 5.65113 143.477 0.0226796 172.508 0.0226796Z" fill="white" fill-opacity="0.02"/>
</svg>
