<svg width="477" height="630" viewBox="0 0 477 630" fill="none" xmlns="http://www.w3.org/2000/svg">
<path d="M0.325519 0.798443C12.7674 1.3909 29.0602 1.98336 49.2042 2.57583C69.3481 3.16829 89.1958 3.46452 108.747 3.46452C136.593 3.46452 163.254 3.16829 188.731 2.57583C214.207 1.98336 232.277 1.68713 242.941 1.68713C305.151 1.68713 351.956 14.7214 383.356 40.79C414.757 66.8587 430.458 100.333 430.458 141.213C430.458 161.95 426.014 182.39 417.127 202.534C408.833 222.085 394.613 240.156 374.469 256.745C354.918 272.741 328.553 285.776 295.375 295.848V297.625C342.18 303.55 378.617 314.807 404.685 331.396C431.346 347.393 450.009 366.352 460.674 388.273C471.338 410.194 476.67 433.3 476.67 457.592C476.67 491.362 468.079 521.282 450.898 547.351C434.309 572.827 410.018 592.971 378.024 607.782C346.031 622.594 307.817 630 263.382 630C250.347 630 230.796 629.704 204.727 629.111C178.659 627.926 147.258 627.334 110.525 627.334C89.7883 627.334 69.3481 627.63 49.2042 628.223C29.0602 628.223 12.7674 628.815 0.325519 630V612.226C20.4694 611.041 35.5774 608.671 45.6494 605.116C56.3138 601.562 63.4234 594.452 66.9782 583.787C70.533 573.123 72.3104 557.126 72.3104 535.798V95.0009C72.3104 73.0796 70.533 57.0829 66.9782 47.011C63.4234 36.3465 56.3138 29.2369 45.6494 25.6821C35.5774 21.5348 20.4694 19.1649 0.325519 18.5725V0.798443ZM220.724 18.5725C193.47 18.5725 175.696 23.6085 167.402 33.6804C159.107 43.7524 154.96 64.1925 154.96 95.0009V535.798C154.96 556.534 156.737 572.234 160.292 582.899C163.847 593.563 170.364 600.673 179.843 604.228C189.323 607.782 203.246 609.56 221.613 609.56C279.674 609.56 321.74 596.229 347.808 569.568C374.469 542.315 387.8 503.804 387.8 454.037C387.8 408.417 375.358 373.165 350.474 348.281C326.183 323.398 285.895 310.956 229.611 310.956H138.074C138.074 310.956 138.074 308.586 138.074 303.846C138.074 298.514 138.074 295.848 138.074 295.848H214.503C249.459 295.848 276.416 289.331 295.375 276.296C314.334 262.669 327.368 244.895 334.478 222.974C341.587 200.46 345.142 176.465 345.142 150.989C345.142 107.147 335.366 74.2645 315.815 52.3432C296.856 29.8294 265.159 18.5725 220.724 18.5725Z" fill="white" fill-opacity="0.06"/>
</svg>
