<svg xmlns="http://www.w3.org/2000/svg" width="71" height="94" viewBox="0 0 71 94" fill="none">
<path d="M0 10.3902C0 5.49224 0 3.04323 1.52162 1.52162C3.04323 0 5.49224 0 10.3902 0H60.6098C65.5078 0 67.9568 0 69.4784 1.52162C71 3.04323 71 5.49224 71 10.3902V72.1527C71 81.4392 71 86.0825 68.0774 87.5042C65.1548 88.9258 61.5018 86.0596 54.1959 80.327L41.9139 70.6901C38.8345 68.2739 37.2949 67.0658 35.5 67.0658C33.7051 67.0658 32.1655 68.2739 29.0861 70.6901L16.8041 80.327C9.49816 86.0596 5.84517 88.9258 2.92259 87.5042C0 86.0825 0 81.4392 0 72.1527V10.3902Z" fill="#FFF9EC"/>
<mask id="mask0_440_2994" style="mask-type:alpha" maskUnits="userSpaceOnUse" x="0" y="0" width="71" height="88">
<path d="M0 10.3902C0 5.49224 0 3.04323 1.52162 1.52162C3.04323 0 5.49224 0 10.3902 0H60.6098C65.5078 0 67.9568 0 69.4784 1.52162C71 3.04323 71 5.49224 71 10.3902V72.1527C71 81.4392 71 86.0825 68.0774 87.5042C65.1548 88.9258 61.5018 86.0596 54.1959 80.327L41.9139 70.6901C38.8345 68.2739 37.2949 67.0658 35.5 67.0658C33.7051 67.0658 32.1655 68.2739 29.0861 70.6901L16.8041 80.327C9.49816 86.0596 5.84517 88.9258 2.92259 87.5042C0 86.0825 0 81.4392 0 72.1527V10.3902Z" fill="#D0C682"/>
</mask>
<g mask="url(#mask0_440_2994)">
<path d="M31.1099 52.4508C29.2512 52.4508 27.6418 52.1107 26.2818 51.4307C24.9218 50.7054 23.8791 49.7081 23.1538 48.4387C22.4738 47.1694 22.1338 45.696 22.1338 44.0187C22.1338 42.024 22.5871 40.392 23.4938 39.1226C24.4458 37.8533 25.6472 36.8333 27.0978 36.0626C28.5485 35.2919 30.0672 34.6573 31.6539 34.1586C33.2859 33.6146 34.8272 33.1159 36.2779 32.6626C37.7286 32.1639 38.9073 31.5972 39.8139 30.9626C40.7659 30.3279 41.242 29.4892 41.242 28.4465V24.2305C41.242 22.3265 40.9473 20.8758 40.3579 19.8785C39.8139 18.8811 39.0659 18.2238 38.1139 17.9065C37.1619 17.5438 36.0966 17.3625 34.9179 17.3625C33.7846 17.3625 32.5605 17.5211 31.2459 17.8385C29.9765 18.1558 28.9565 18.8131 28.1858 19.8105C29.0472 19.9918 29.7952 20.4451 30.4299 21.1705C31.0645 21.8958 31.3819 22.8252 31.3819 23.9585C31.3819 25.0919 31.0192 25.9985 30.2939 26.6785C29.5685 27.3132 28.6392 27.6305 27.5058 27.6305C26.1912 27.6305 25.2165 27.2225 24.5818 26.4065C23.9925 25.5452 23.6978 24.5932 23.6978 23.5505C23.6978 22.3718 23.9925 21.4198 24.5818 20.6945C25.1711 19.9691 25.9192 19.2891 26.8258 18.6545C27.8685 17.9291 29.2058 17.3171 30.8379 16.8184C32.5152 16.2744 34.3966 16.0024 36.4819 16.0024C38.3406 16.0024 39.9273 16.2291 41.242 16.6824C42.5566 17.0904 43.6446 17.7025 44.506 18.5185C45.6847 19.6065 46.4553 20.9438 46.818 22.5305C47.1807 24.0718 47.362 25.9305 47.362 28.1065V47.0107C47.362 48.144 47.5207 48.9601 47.838 49.4587C48.2007 49.9574 48.7447 50.2067 49.47 50.2067C49.9687 50.2067 50.4447 50.0934 50.898 49.8667C51.3514 49.6401 51.8954 49.2774 52.5301 48.7787L53.2781 49.9347C52.3261 50.6601 51.4194 51.2721 50.558 51.7707C49.6967 52.2241 48.5407 52.4508 47.09 52.4508C45.7753 52.4508 44.6873 52.2241 43.826 51.7707C42.9646 51.3174 42.3073 50.6601 41.854 49.7987C41.446 48.8921 41.242 47.7587 41.242 46.3987C40.0179 48.4387 38.5446 49.9574 36.8219 50.9547C35.1446 51.9521 33.2406 52.4508 31.1099 52.4508ZM33.5579 49.7307C35.0539 49.7307 36.4366 49.3001 37.7059 48.4387C39.0206 47.5774 40.1993 46.2854 41.242 44.5627V31.2346C40.698 32.0052 39.9046 32.6626 38.8619 33.2066C37.8193 33.7053 36.6859 34.2266 35.4619 34.7706C34.2379 35.2693 33.0592 35.8813 31.9259 36.6066C30.8379 37.2866 29.9312 38.1933 29.2058 39.3266C28.4805 40.46 28.1178 41.9333 28.1178 43.7467C28.1178 45.56 28.5938 47.0107 29.5459 48.0987C30.5432 49.1867 31.8805 49.7307 33.5579 49.7307Z" fill="#D3C274"/>
</g>
</svg>