<svg width="28" height="28" viewBox="0 0 28 28" fill="none" xmlns="http://www.w3.org/2000/svg">
<path fill-rule="evenodd" clip-rule="evenodd" d="M16.5538 27.2061H21.1467C24.9867 27.2061 28.0738 24.1191 27.9985 20.2791V6.87668C27.9985 3.11197 24.9115 0.0249023 21.1467 0.0249023H7.74436C3.97964 0.0249023 0.892578 3.11197 0.892578 6.87668V20.2791C0.892578 24.0438 3.97964 27.1308 7.74436 27.1308H12.3373L12.3379 27.1306V17.4179H8.94969V13.5779H12.3379V10.6414C12.3379 7.25314 14.3709 5.44608 17.4579 5.44608C18.9638 5.44608 20.4697 5.67196 20.4697 5.67196V9.0602H18.8132C17.1568 9.0602 16.6297 10.1143 16.6297 11.1684V13.6532H20.3191L19.7168 17.4932H16.5544V27.1308H16.3429L16.5538 27.2061Z" fill="#E7E7E7"/>
</svg>
