<svg width="101" height="105" viewBox="0 0 101 105" fill="none" xmlns="http://www.w3.org/2000/svg">
<g clip-path="url(#clip0_440_1738)">
<path d="M8.16394 37.9933L10.1096 39.8241L9.661 40.8011L3.50456 34.9257L4.02068 33.7791L12.4625 34.665L12.0082 35.6794L9.34908 35.394L8.16394 37.9933ZM8.52568 35.2435L6.08998 34.9927C5.53742 34.9416 5.06095 34.841 4.58651 34.7522L4.57882 34.7778C4.95862 35.0896 5.35219 35.4112 5.72633 35.7605L7.50475 37.4619L8.52568 35.2435Z" fill="white"/>
<path d="M12.1002 34.2402L10.6994 30.1632C10.5855 29.7814 10.4777 29.4351 10.3736 29.0394L10.346 29.0198L8.63224 31.637L7.92249 31.1629L10.3467 27.4752L10.8816 27.8455L12.2605 31.8654C12.3978 32.2432 12.5076 32.6014 12.6098 32.9852L12.6235 32.995L14.483 30.1704L15.179 30.6347L12.6014 34.5555L12.1002 34.2402Z" fill="white"/>
<path d="M17.5134 25.5028C17.9563 25.9011 18.3637 26.2325 18.7256 26.5109L18.1207 27.2106L17.3692 26.6343L17.3478 26.6501C17.5212 27.1676 17.5713 28.0225 16.8964 28.8073C16.3012 29.4932 15.2112 29.9722 13.6875 28.6284L11.152 26.3881L11.8386 25.6013L14.2442 27.718C15.0711 28.4517 15.8479 28.6832 16.4743 27.9676C16.9392 27.4378 16.892 26.7405 16.67 26.2921C16.5967 26.1466 16.4724 25.9855 16.3307 25.8639L13.6672 23.5118L14.3538 22.725L17.5134 25.5028Z" fill="white"/>
<path d="M17.0212 22.7045C16.5717 22.1979 16.1717 21.768 15.7914 21.3833L16.4713 20.7679L17.2536 21.5944L17.2848 21.5647C16.9611 20.8055 17.1033 20.0149 17.6273 19.5479C17.7111 19.4727 17.7872 19.4231 17.875 19.3716L18.5334 20.1099C18.4339 20.1635 18.3481 20.2268 18.2429 20.3179C17.6877 20.8145 17.6746 21.583 18.0938 22.265C18.1748 22.3849 18.2598 22.5284 18.3801 22.6659L20.4324 24.977L19.657 25.6695L17.0212 22.7045Z" fill="white"/>
<path d="M19.7486 15.2186L20.6207 14.6675L24.446 20.7607L27.3453 18.9252L27.8119 19.6721L24.0405 22.0586L19.7486 15.2186Z" fill="white"/>
<path d="M26.1769 12.2542C26.3511 12.5648 26.2476 12.9474 25.8688 13.1341C25.5349 13.3008 25.1717 13.1564 25.021 12.8418C24.8546 12.5055 24.9698 12.1209 25.3017 11.9423C25.659 11.7715 26.0104 11.9179 26.1769 12.2542ZM28.4575 19.4151L25.8635 14.2295L26.7988 13.7649L29.3928 18.9505L28.4575 19.4151Z" fill="white"/>
<path d="M30.7356 18.3186L28.8303 13.6959L28.0742 14.0081L27.7781 13.2684L28.5224 12.9582L28.4191 12.7084C28.1092 11.9589 27.9911 11.2008 28.2597 10.5831C28.4761 10.0838 28.8989 9.73148 29.3502 9.54455C29.6882 9.4014 30.0189 9.3568 30.2362 9.35597L30.4114 10.1651C30.241 10.1578 30.0159 10.1843 29.7464 10.3035C28.924 10.6515 29.0149 11.4629 29.3487 12.2812L29.4699 12.5645L30.7553 12.0276L31.0632 12.7653L29.7778 13.3021L31.6831 17.9249L30.7356 18.3186Z" fill="white"/>
<path d="M33.098 14.4836C33.5251 15.8454 34.557 16.1547 35.5579 15.8613C36.2832 15.6516 36.6734 15.3901 37.0028 15.1268L37.3847 15.8031C37.0788 16.0624 36.5268 16.4368 35.6529 16.6963C33.9502 17.1954 32.6096 16.3553 32.116 14.6765C31.6224 12.9978 32.2161 11.3878 33.827 10.9167C35.6334 10.3877 36.5839 11.842 36.8798 12.8615C36.9397 13.0701 36.9681 13.2355 36.9864 13.3418L33.098 14.4836ZM35.8342 12.895C35.6619 12.2435 35.0945 11.3315 33.9547 11.661C32.9421 11.9564 32.7643 13.0328 32.9018 13.7633L35.8342 12.895Z" fill="white"/>
<path d="M44.1543 12.5732L43.3606 15.1297L42.2875 15.1436L44.8814 7.02424L46.1346 7.0037L49.0118 15.0352L47.9035 15.0552L46.9975 12.523L44.1543 12.5732ZM46.7754 11.7219L45.9549 9.4061C45.7677 8.87879 45.6376 8.40249 45.5096 7.93801L45.4861 7.94204C45.3753 8.4232 45.2549 8.91819 45.1089 9.40539L44.3649 11.7587L46.7754 11.7219Z" fill="white"/>
<path d="M53.8076 9.88275L53.7107 10.7264L51.2296 10.4226L50.6359 15.3406L49.6109 15.2125L50.3015 9.45087L53.8076 9.88275Z" fill="white"/>
<path d="M54.6922 13.2092C54.3753 14.6014 55.1261 15.3846 56.1361 15.6369C56.8676 15.8154 57.3355 15.7959 57.7581 15.7233L57.7608 16.5134C57.3637 16.5937 56.706 16.6336 55.8097 16.4105C54.0819 15.9895 53.3314 14.5738 53.7404 12.8739C54.1495 11.174 55.4728 10.0834 57.1006 10.485C58.9304 10.9371 59.0229 12.6725 58.7783 13.7118C58.7306 13.9267 58.6611 14.0846 58.6283 14.1753L54.6922 13.2092ZM57.8589 13.2129C58.0254 12.564 57.9975 11.4864 56.8482 11.1972C55.8147 10.949 55.1362 11.783 54.8818 12.4834L57.8589 13.2129Z" fill="white"/>
<path d="M61.8849 12.0962L61.0105 14.253L63.5448 15.2896L64.4172 13.1209L65.3791 13.5153L63.2076 18.8865L62.2457 18.4922L63.2301 16.0611L60.6978 15.0364L59.7134 17.4675L58.7515 17.0732L60.923 11.7019L61.8849 12.0962Z" fill="white"/>
<path d="M70.4929 16.408L70.0742 17.1366L68.5179 16.2363L66.0659 20.5368L65.1679 20.0221L67.6199 15.7215L66.0636 14.8212L66.4823 14.0925L70.4929 16.408Z" fill="white"/>
<path d="M71.327 23.9394C71.0173 23.8953 70.4149 23.6947 69.7914 23.2301C68.3929 22.1932 68.1835 20.5508 69.2306 19.1184C70.2894 17.6839 72.0246 17.3739 73.5353 18.501C74.0349 18.8774 74.3784 19.3292 74.523 19.6085L73.8484 20.1135C73.7313 19.8538 73.4903 19.506 73.034 19.1708C71.9679 18.3809 70.8087 18.738 70.1055 19.71C69.3109 20.7829 69.5137 21.9643 70.4401 22.6444C70.9239 22.9992 71.33 23.1119 71.6437 23.1797L71.327 23.9394Z" fill="white"/>
<path d="M78.6782 23.2495L78.106 23.8585L76.8042 22.6104L73.408 26.1974L72.6557 25.4752L76.0519 21.8882L74.75 20.6401L75.3222 20.0311L78.6782 23.2495Z" fill="white"/>
<path d="M79.3968 24.1359C79.7098 24.4105 80.2378 24.9523 80.6658 25.4747C81.2773 26.2211 82.1724 27.5633 81.1785 28.3907C80.6289 28.8499 79.9387 28.7008 79.4075 28.2812L79.3861 28.297C79.8271 29.0362 79.8533 29.8222 79.2062 30.3468C78.0428 31.3127 76.6855 29.9525 75.9654 29.0667C75.5532 28.5658 75.168 28.0117 74.9923 27.7621L79.3968 24.1359ZM76.1497 28.0986C76.3137 28.3501 76.4401 28.523 76.6551 28.7902C77.0989 29.3342 77.8982 30.0483 78.5433 29.512C79.1904 28.9874 78.7922 28.2166 78.1629 27.4368L77.6737 26.8397L76.1497 28.0986ZM78.2176 26.418L78.7205 27.0248C79.2118 27.6337 79.896 28.1 80.4144 27.6705C80.8587 27.3024 80.7497 26.7373 80.0791 25.9281C79.864 25.661 79.7045 25.506 79.5291 25.3293L78.2176 26.418Z" fill="white"/>
<path d="M83.609 35.0768C81.7806 36.1812 80.2287 35.3773 79.5029 34.1763C78.7038 32.8297 79.0643 31.1989 80.6314 30.261C82.2862 29.2716 83.9068 29.7717 84.7237 31.1517C85.5839 32.5729 85.1214 34.1726 83.609 35.0768ZM81.2085 31.1592C80.1235 31.8076 79.6875 32.9284 80.2136 33.811C80.724 34.6721 81.9254 34.8428 83.0299 34.1667C83.8632 33.671 84.6833 32.6059 84.0405 31.5366C83.4095 30.4652 82.149 30.5843 81.2085 31.1592Z" fill="white"/>
<path d="M90.3205 37.8536L87.1266 38.8884L88.3216 42.6115L91.5155 41.5768L91.8328 42.5804L84.1843 45.0487L83.867 44.0451L87.4498 42.8828L86.2548 39.1597L82.672 40.322L82.3567 39.3302L90.0052 36.8618L90.3205 37.8536Z" fill="white"/>
<path d="M87.1518 46.4252C85.755 46.665 85.3064 47.642 85.4731 48.6836C85.5892 49.4299 85.7836 49.8586 86.0031 50.2223L85.292 50.5146C85.0766 50.1746 84.7792 49.5689 84.6466 48.6552C84.3796 46.8889 85.3887 45.6576 87.1086 45.3989C88.8284 45.1401 90.3354 45.9638 90.5841 47.6238C90.8693 49.4964 89.305 50.2393 88.2563 50.395C88.045 50.4312 87.8745 50.424 87.7669 50.4303L87.1518 46.4252ZM88.3462 49.3701C89.0076 49.2809 89.9959 48.8437 89.8186 47.6701C89.6616 46.6146 88.6277 46.2935 87.8954 46.3219L88.3462 49.3701Z" fill="white"/>
<path d="M90.9235 56.2252L85.9475 56.2402L85.9412 56.8372L83.3343 56.7861L83.3373 55.9586L85.1661 55.9122L85.1542 51.9008L83.3209 51.8507L83.3238 51.0232L85.938 50.9758L85.9487 51.4604C86.3183 51.7132 86.713 51.9008 87.1349 52.0351C87.851 52.2649 88.6291 52.3624 89.4399 52.3692L90.938 52.3674L90.9235 56.2252ZM89.1633 53.2923C88.4015 53.2893 87.6587 53.1857 87.0231 53.0029C86.6288 52.8882 86.2733 52.7181 85.951 52.5302L85.9629 55.2038L90.1302 55.1938L90.117 53.2867L89.1633 53.2923Z" fill="white"/>
<path d="M90.7168 58.3288C90.7271 58.7405 90.6885 59.5011 90.5867 60.1754C90.4494 61.1354 90.0788 62.7071 88.8028 62.5248C88.0972 62.427 87.7392 61.8196 87.6843 61.1479L87.6588 61.1401C87.4267 61.9705 86.8679 62.5164 86.0388 62.4033C84.5394 62.1864 84.6084 60.2652 84.7643 59.1317C84.8604 58.4949 84.9876 57.8285 85.0564 57.5248L90.7168 58.3288ZM85.617 58.6083C85.5345 58.9022 85.4985 59.1151 85.4574 59.4384C85.3596 60.1362 85.3738 61.204 86.2048 61.3289C87.0339 61.442 87.319 60.639 87.4619 59.6415L87.573 58.8806L85.617 58.6083ZM88.2571 58.9942L88.1501 59.7788C88.0411 60.5515 88.1596 61.3825 88.8279 61.4745C89.3983 61.5591 89.7422 61.0987 89.8771 60.0539C89.9259 59.705 89.9246 59.4863 89.9428 59.24L88.2571 58.9942Z" fill="white"/>
<path d="M89.4979 65.5806L87.1652 64.8743C86.2863 64.6117 85.737 64.4384 84.9637 64.1577L84.9581 64.1951C85.5213 64.7308 85.8521 65.0389 86.3822 65.5925L88.724 68.1823L88.3706 69.3618L82.854 67.7062L83.1362 66.7457L85.4805 67.4499C86.3849 67.7203 86.8481 67.8841 87.7233 68.196L87.729 68.1585C87.1244 67.5934 86.758 67.2185 86.287 66.7277C85.5832 65.9364 84.7005 65.0177 83.906 64.1203L84.2497 62.9546L89.7801 64.62L89.4979 65.5806Z" fill="white"/>
<path d="M87.449 71.8074L84.3462 72.3887L84.2475 72.588L86.4967 73.7223L86.0477 74.6265L83.7984 73.4922L83.7094 73.6778L85.1168 76.5256L84.5787 77.6153L83.2397 74.3909C82.7622 75.1297 82.0781 75.3687 81.1061 75.268C80.5142 75.1993 79.881 75.1013 79.3738 75.1032L79.8402 74.1595C80.2357 74.1403 80.7317 74.2133 81.2628 74.2802C82.2701 74.3749 82.7538 74.0243 83.0964 73.3451L83.1777 73.1852L80.8913 72.0452L81.3403 71.141L83.6268 72.2811L83.7061 72.1093C84.0641 71.3789 84.0137 70.8037 83.3297 70.0576C82.9709 69.657 82.6339 69.3134 82.395 68.9774L82.842 68.0614C83.1559 68.4819 83.607 68.9274 84.0071 69.3574C84.6774 70.0938 84.9165 70.7825 84.6119 71.6133L87.9774 70.7314L87.449 71.8074Z" fill="white"/>
<path d="M83.1392 79.5889L81.186 78.1364C80.4503 77.5816 79.992 77.2346 79.3583 76.711L79.3389 76.7387C79.6876 77.4328 79.9015 77.8339 80.2053 78.548L81.5346 81.7859L80.8099 82.7738L76.1699 79.3259L76.7683 78.5177L78.7352 79.98C79.4964 80.5426 79.8762 80.8544 80.5945 81.4486L80.6139 81.421C80.2336 80.6836 80.0055 80.1998 79.7414 79.5762C79.344 78.5985 78.8279 77.4223 78.3846 76.3187L79.0996 75.3446L83.7396 78.7926L83.1392 79.5889Z" fill="white"/>
<path d="M79.4006 84.415L78.4796 85.3149L75.6966 83.9563C75.2978 83.745 74.6242 83.4107 74.2096 83.1778L74.1881 83.1936C74.3903 83.5968 74.8087 84.4857 75.0826 85.0954L76.1703 87.56L75.2396 88.4738L70.926 84.6049L71.6386 83.8989L73.6551 85.7905C74.1139 86.2103 74.6593 86.7126 75.1654 87.1974L75.1849 87.1697C74.9313 86.6781 74.7113 86.2416 74.3342 85.382L73.0913 82.5063L73.6404 81.9742L76.3586 83.3075C76.8635 83.5735 77.6259 84.0021 78.1093 84.284L78.1405 84.2543C77.6792 83.7497 77.1706 83.1803 76.7604 82.6912L74.9564 80.6294L75.6495 79.951L79.4006 84.415Z" fill="white"/>
<path d="M67.6251 90.4382C66.4141 88.6637 67.1058 87.0612 68.2624 86.2667C69.5477 85.3772 71.1884 85.6428 72.2215 87.156C73.3178 88.7556 72.9144 90.418 71.5959 91.3254C70.2346 92.2645 68.6246 91.8963 67.6251 90.4382ZM71.3636 87.7897C70.6524 86.7443 69.5104 86.3566 68.6561 86.941C67.8349 87.5077 67.7402 88.7158 68.481 89.7926C69.0322 90.6101 70.1391 91.3566 71.165 90.6454C72.1929 89.9459 71.978 88.6937 71.3636 87.7897Z" fill="white"/>
<path d="M61.6098 90.3885C61.7963 90.1376 62.25 89.6827 62.9412 89.3451C64.4994 88.5668 66.0479 89.1402 66.8289 90.7331C67.6236 92.3358 67.1069 94.042 65.4139 94.8799C64.8575 95.1579 64.2961 95.2664 63.9807 95.2597L63.8367 94.421C64.1286 94.4317 64.5317 94.3868 65.0433 94.1287C66.2227 93.5371 66.4291 92.3463 65.9037 91.2568C65.3111 90.0572 64.1731 89.6931 63.15 90.2093C62.6149 90.4714 62.3309 90.7877 62.1209 91.0427L61.6098 90.3885Z" fill="white"/>
<path d="M58.8416 97.2852L58.5725 96.4923L60.2708 95.8967L58.6452 91.2137L59.6263 90.875L61.2519 95.558L62.9502 94.9624L63.2193 95.7554L58.8416 97.2852Z" fill="white"/>
<path d="M56.7542 97.8018L56.27 95.4039C56.0904 94.4982 55.9813 93.9332 55.8649 93.114L55.8296 93.1201C55.6324 93.8715 55.5135 94.3054 55.277 95.0392L54.1135 98.328L52.9106 98.571L51.7529 92.8834L52.7329 92.6787L53.219 95.0884C53.4027 96.0177 53.4859 96.5021 53.6206 97.4275L53.6558 97.4215C53.8684 96.6188 54.0221 96.106 54.2279 95.4747C54.5902 94.4882 54.9845 93.2651 55.3832 92.1386L56.5627 91.8997L57.7203 97.5872L56.7542 97.8018Z" fill="white"/>
<path d="M40.0002 13.0919C40.3827 13.0262 40.6392 12.661 40.5731 12.276C40.507 11.8911 40.1434 11.6322 39.7609 11.6979C39.3784 11.7635 39.1219 12.1288 39.188 12.5138C39.2541 12.8987 39.6177 13.1576 40.0002 13.0919Z" fill="white"/>
</g>
<defs>
<clipPath id="clip0_440_1738">
<rect width="85.7602" height="91.8138" fill="white" transform="translate(0 14.5098) rotate(-9.74076)"/>
</clipPath>
</defs>
</svg>
