<svg width="16" height="21" viewBox="0 0 16 21" fill="none" xmlns="http://www.w3.org/2000/svg">
<path fill-rule="evenodd" clip-rule="evenodd" d="M14.5996 3.30573C13.8054 0.927872 11.2339 -0.355911 8.856 0.43833C8.09995 0.690863 7.59698 1.40698 7.61602 2.20387L7.70136 5.77938C7.71927 6.53037 8.177 7.20067 8.86992 7.49075L9.53477 7.76908C9.88203 7.91448 10.1168 8.25133 10.0924 8.62697C9.96659 10.5678 9.05769 12.3884 7.58206 13.6555C7.29644 13.9007 6.88613 13.9155 6.56122 13.7253L5.9392 13.3612C5.29091 12.9817 4.48008 13.0187 3.86908 13.4557L0.960015 15.5363C0.311655 16 0.0415589 16.8324 0.294092 17.5884C1.08833 19.9663 3.65984 21.2501 6.0377 20.4558L6.88065 20.1743C13.5153 17.9582 17.0972 10.7833 14.8812 4.14868L14.5996 3.30573Z" fill="white"/>
</svg>
