<svg width="28" height="28" viewBox="0 0 28 28" fill="none" xmlns="http://www.w3.org/2000/svg">
<path d="M21.2522 5.00073C20.3146 5.00073 19.6113 5.70396 19.6113 6.64159C19.6113 7.57923 20.3146 8.28246 21.2522 8.28246C22.1898 8.28246 22.8931 7.57923 22.8931 6.64159C22.8931 5.70396 22.1898 5.00073 21.2522 5.00073Z" fill="#E7E7E7"/>
<path d="M14.0654 7.03247C10.3149 7.03247 7.18945 10.0798 7.18945 13.9085C7.18945 17.659 10.2368 20.7845 14.0654 20.7845C17.816 20.7845 20.9414 17.7371 20.9414 13.9085C20.8633 10.1579 17.816 7.03247 14.0654 7.03247ZM14.0654 18.2841C11.6432 18.2841 9.68981 16.3307 9.68981 13.9085C9.68981 11.4862 11.6432 9.53283 14.0654 9.53283C16.4877 9.53283 18.4411 11.4862 18.4411 13.9085C18.4411 16.3307 16.4877 18.2841 14.0654 18.2841Z" fill="#E7E7E7"/>
<path d="M19.4559 27.8165H8.36058C3.75054 27.8165 0 24.066 0 19.4559V8.36058C0 3.75054 3.75054 0 8.36058 0H19.4559C24.066 0 27.8165 3.75054 27.8165 8.36058V19.4559C27.8165 24.066 24.066 27.8165 19.4559 27.8165ZM8.36058 2.65663C5.157 2.65663 2.65663 5.23513 2.65663 8.36058V19.4559C2.65663 22.6595 5.23513 25.1599 8.36058 25.1599H19.4559C22.6595 25.1599 25.1599 22.5814 25.1599 19.4559V8.36058C25.1599 5.157 22.5814 2.65663 19.4559 2.65663H8.36058Z" fill="#E7E7E7"/>
</svg>
